# Blender 4.1.0
# www.blender.org
mtllib moondrive.mtl
o base
v 0.000000 0.000034 9.038490
v 0.000000 15.884831 34.898430
v 0.000000 0.000057 60.758354
v 0.000000 -15.884737 34.898430
v -67.026901 0.000034 6.059631
v -84.311432 13.677368 26.630798
v -101.595764 0.000051 47.202072
v -84.311432 -13.677283 26.630798
v -136.963638 0.000028 -6.192810
v -155.787033 8.061296 3.086777
v -174.610428 0.000037 12.366356
v -155.787033 -8.061228 3.086777
v -203.545502 0.000017 -32.149357
v -184.782333 0.000014 -40.465084
v -196.543015 0.000014 -37.697762
v 0.000000 0.000034 9.038490
v 0.000000 15.884831 34.898430
v 0.000000 0.000057 60.758354
v 0.000000 -15.884737 34.898430
v 67.026901 0.000034 6.059631
v 84.311432 13.677368 26.630798
v 101.595764 0.000051 47.202072
v 84.311432 -13.677283 26.630798
v 136.963638 0.000028 -6.192810
v 155.787033 8.061296 3.086777
v 174.610428 0.000037 12.366356
v 155.787033 -8.061228 3.086777
v 203.545502 0.000017 -32.149357
v 184.782333 0.000014 -40.465084
v 196.543015 0.000014 -37.697762
v 67.026901 0.000034 6.059631
v 84.311432 13.677368 26.630798
v 101.595764 0.000051 47.202072
v 84.311432 -13.677283 26.630798
v 136.963638 0.000028 -6.192810
v 155.787033 8.061296 3.086777
v 174.610428 0.000037 12.366356
v 155.787033 -8.061228 3.086777
v 203.545502 0.000017 -32.149357
v 184.782333 0.000014 -40.465084
v 196.543015 0.000014 -37.697762
v -67.026901 0.000034 6.059631
v -84.311432 13.677368 26.630798
v -101.595764 0.000051 47.202072
v -84.311432 -13.677283 26.630798
v -136.963638 0.000028 -6.192810
v -155.787033 8.061296 3.086777
v -174.610428 0.000037 12.366356
v -155.787033 -8.061228 3.086777
v -203.545502 0.000017 -32.149357
v -184.782333 0.000014 -40.465084
v -196.543015 0.000014 -37.697762
vn 0.0468 0.8530 -0.5198
vn -0.0445 0.9974 -0.0560
vn 0.0001 0.9999 -0.0106
vn 0.0001 0.8521 -0.5235
vn 0.0466 0.8530 -0.5198
vn -0.0000 0.9999 -0.0102
vn -0.1135 0.8665 0.4861
vn -0.0000 0.8521 0.5235
vn -0.0001 1.0000 -0.0099
vn -0.0446 0.9975 -0.0550
vn -0.1135 0.8665 0.4860
vn -0.0000 1.0000 -0.0097
vn -0.1135 -0.8665 0.4860
vn -0.0446 -0.9975 -0.0550
vn -0.0001 -1.0000 -0.0097
vn -0.0000 -0.8521 0.5235
vn -0.1135 -0.8665 0.4861
vn -0.0000 -1.0000 -0.0099
vn 0.0471 -0.8532 -0.5195
vn 0.0001 -0.8521 -0.5235
vn -0.0000 -0.9999 -0.0102
vn -0.0445 -0.9974 -0.0560
vn 0.0468 -0.8530 -0.5198
vn -0.0000 -0.9999 -0.0107
vn 0.1023 0.9238 -0.3689
vn -0.0564 0.9932 -0.1015
vn -0.0445 0.9975 -0.0557
vn 0.0473 0.8530 -0.5197
vn -0.0444 0.9975 -0.0557
vn -0.2336 0.9118 0.3378
vn -0.0446 0.9975 -0.0555
vn -0.0566 0.9933 -0.1012
vn -0.2336 0.9118 0.3377
vn -0.2336 -0.9118 0.3377
vn -0.0566 -0.9933 -0.1012
vn -0.0446 -0.9975 -0.0551
vn -0.2336 -0.9118 0.3378
vn -0.0446 -0.9975 -0.0555
vn 0.1023 -0.9238 -0.3689
vn 0.0473 -0.8530 -0.5197
vn -0.0445 -0.9975 -0.0557
vn -0.0565 -0.9932 -0.1015
vn 0.1024 -0.9238 -0.3689
vn -0.0565 -0.9932 -0.1013
vn 0.0422 -0.9844 -0.1706
vn -0.0000 -1.0000 -0.0000
vn 0.1023 -0.9239 -0.3686
vn 0.0417 -0.9845 -0.1704
vn -0.1990 -0.9789 0.0454
vn -0.2335 -0.9117 0.3380
vn -0.1991 -0.9789 0.0454
vn -0.0567 -0.9932 -0.1012
vn 0.0422 0.9844 -0.1706
vn -0.0565 0.9932 -0.1013
vn 0.1024 0.9238 -0.3689
vn -0.0000 1.0000 -0.0000
vn 0.0417 0.9845 -0.1704
vn 0.1023 0.9239 -0.3686
vn -0.1990 0.9789 0.0454
vn -0.2336 0.9117 0.3380
vn -0.1991 0.9789 0.0457
vn -0.0000 0.9999 -0.0107
vn 0.0445 0.9974 -0.0560
vn -0.0468 0.8530 -0.5198
vn -0.0001 0.8521 -0.5235
vn -0.0471 0.8532 -0.5195
vn 0.1135 0.8665 0.4860
vn 0.0446 0.9975 -0.0550
vn 0.0001 1.0000 -0.0097
vn 0.1135 0.8665 0.4861
vn -0.0000 1.0000 -0.0099
vn -0.0000 -1.0000 -0.0097
vn 0.0446 -0.9975 -0.0550
vn 0.1135 -0.8665 0.4860
vn 0.0001 -1.0000 -0.0099
vn 0.1135 -0.8665 0.4861
vn -0.0468 -0.8530 -0.5198
vn 0.0445 -0.9974 -0.0560
vn -0.0001 -0.9999 -0.0106
vn -0.0001 -0.8521 -0.5235
vn -0.0466 -0.8530 -0.5198
vn 0.0565 0.9932 -0.1015
vn -0.1023 0.9238 -0.3689
vn -0.0473 0.8530 -0.5197
vn 0.0445 0.9975 -0.0557
vn 0.2336 0.9118 0.3377
vn 0.0566 0.9933 -0.1012
vn 0.0446 0.9975 -0.0551
vn 0.2336 0.9118 0.3378
vn 0.0446 0.9975 -0.0555
vn 0.0446 -0.9975 -0.0555
vn 0.0566 -0.9933 -0.1012
vn 0.2336 -0.9118 0.3377
vn 0.2336 -0.9118 0.3378
vn -0.1023 -0.9238 -0.3689
vn 0.0564 -0.9932 -0.1014
vn 0.0446 -0.9974 -0.0560
vn -0.0473 -0.8530 -0.5197
vn 0.0444 -0.9975 -0.0557
vn -0.1023 -0.9239 -0.3686
vn -0.0417 -0.9845 -0.1704
vn 0.0565 -0.9932 -0.1013
vn -0.1024 -0.9238 -0.3689
vn -0.0422 -0.9844 -0.1706
vn 0.1990 -0.9789 0.0454
vn 0.2336 -0.9117 0.3380
vn 0.1991 -0.9789 0.0457
vn -0.0417 0.9845 -0.1704
vn -0.1023 0.9239 -0.3686
vn 0.0565 0.9932 -0.1013
vn -0.0422 0.9844 -0.1706
vn -0.1024 0.9238 -0.3689
vn 0.1990 0.9789 0.0454
vn 0.2335 0.9117 0.3380
vn 0.1991 0.9789 0.0454
vn 0.0567 0.9932 -0.1012
vt 0.485330 0.306890
vt 0.482820 0.453080
vt 0.675020 0.454150
vt 0.675020 0.304420
vt 0.479010 0.599820
vt 0.675020 0.603870
vt 0.298710 0.341250
vt 0.290620 0.452000
vt 0.276490 0.564730
vt 0.086310 0.416400
vt 0.110400 0.326640
vt 0.069290 0.507390
s 0
f 5/1/1 6/2/2 2/3/3
f 1/4/4 5/1/5 2/3/6
f 7/5/7 3/6/8 2/3/9
f 6/2/10 7/5/11 2/3/12
f 7/5/13 8/2/14 4/3/15
f 3/6/16 7/5/17 4/3/18
f 5/1/19 1/4/20 4/3/21
f 8/2/22 5/1/23 4/3/24
f 9/7/25 10/8/26 6/2/27
f 5/1/28 9/7/25 6/2/29
f 11/9/30 7/5/11 6/2/31
f 10/8/32 11/9/33 6/2/31
f 11/9/34 12/8/35 8/2/36
f 7/5/13 11/9/37 8/2/38
f 9/7/39 5/1/40 8/2/41
f 12/8/42 9/7/39 8/2/22
f 9/7/43 12/8/44 15/10/45
f 14/11/46 9/7/47 15/10/48
f 13/12/49 15/10/48 12/8/44
f 11/9/50 13/12/51 12/8/52
f 15/10/53 10/8/54 9/7/55
f 14/11/56 15/10/57 9/7/58
f 10/8/54 15/10/57 13/12/59
f 11/9/60 10/8/32 13/12/61
f 17/3/62 21/2/63 20/1/64
f 16/4/65 17/3/6 20/1/66
f 22/5/67 21/2/68 17/3/69
f 18/6/8 22/5/70 17/3/71
f 19/3/72 23/2/73 22/5/74
f 18/6/16 19/3/75 22/5/76
f 20/1/77 23/2/78 19/3/79
f 16/4/80 20/1/81 19/3/21
f 21/2/63 25/8/82 24/7/83
f 20/1/84 21/2/85 24/7/83
f 26/9/86 25/8/87 21/2/88
f 22/5/67 26/9/89 21/2/90
f 23/2/91 27/8/92 26/9/93
f 22/5/74 23/2/91 26/9/94
f 24/7/95 27/8/96 23/2/97
f 20/1/98 24/7/95 23/2/99
f 24/7/100 29/11/46 30/10/101
f 27/8/102 24/7/103 30/10/104
f 27/8/102 30/10/101 28/12/105
f 26/9/106 27/8/92 28/12/107
f 30/10/108 29/11/56 24/7/109
f 25/8/110 30/10/111 24/7/112
f 28/12/113 30/10/108 25/8/110
f 26/9/114 28/12/115 25/8/116
f 2/3/62 32/2/63 31/1/64
f 2/3/6 31/1/66 1/4/65
f 2/3/71 3/6/8 33/5/70
f 2/3/69 33/5/67 32/2/68
f 4/3/72 34/2/73 33/5/74
f 4/3/75 33/5/76 3/6/16
f 4/3/21 1/4/80 31/1/81
f 4/3/79 31/1/77 34/2/78
f 32/2/63 36/8/82 35/7/83
f 32/2/85 35/7/83 31/1/84
f 32/2/90 33/5/67 37/9/86
f 32/2/88 37/9/86 36/8/87
f 34/2/91 38/8/92 37/9/93
f 34/2/91 37/9/94 33/5/74
f 34/2/99 31/1/98 35/7/95
f 34/2/97 35/7/95 38/8/96
f 41/10/104 38/8/102 35/7/103
f 41/10/101 35/7/100 40/11/46
f 38/8/102 41/10/101 39/12/105
f 38/8/92 39/12/107 37/9/106
f 35/7/112 36/8/110 41/10/111
f 35/7/109 41/10/108 40/11/56
f 39/12/113 41/10/108 36/8/110
f 39/12/115 36/8/116 37/9/114
f 42/1/1 43/2/2 17/3/3
f 42/1/5 17/3/6 16/4/4
f 17/3/12 43/2/10 44/5/11
f 17/3/9 44/5/7 18/6/8
f 44/5/13 45/2/14 19/3/15
f 44/5/17 19/3/18 18/6/16
f 19/3/24 45/2/22 42/1/23
f 19/3/21 42/1/19 16/4/20
f 46/7/25 47/8/26 43/2/27
f 46/7/25 43/2/29 42/1/28
f 43/2/31 47/8/32 48/9/33
f 43/2/31 48/9/33 44/5/11
f 48/9/34 49/8/35 45/2/36
f 48/9/37 45/2/38 44/5/13
f 45/2/22 49/8/42 46/7/39
f 45/2/41 46/7/39 42/1/40
f 52/10/48 51/11/46 46/7/47
f 52/10/45 46/7/43 49/8/44
f 50/12/49 52/10/48 49/8/44
f 50/12/51 49/8/52 48/9/50
f 46/7/58 51/11/56 52/10/57
f 46/7/55 52/10/53 47/8/54
f 47/8/54 52/10/57 50/12/59
f 47/8/32 50/12/61 48/9/60
